<?xml version="1.0" encoding="UTF-8"?>
<svg width="256" height="256" viewBox="0 0 256 256" xmlns="http://www.w3.org/2000/svg">
  <g fill="#c9ffe6" stroke="#00ff88" stroke-width="4">
    <path d="M82 60c-8-28 24-42 36-18 3 6 4 12 10 18 6 6 16 8 24 12 20 10 28 30 26 48-2 18-14 34-30 44-14 9-34 12-50 8-24-6-42-28-40-52 2-22 14-38 24-60z" opacity=".9"/>
    <circle cx="162" cy="114" r="6" fill="#00ff88"/>
    <path d="M164 170c8 14-10 28-28 26-18-2-30-10-42-12-14-2-30 2-42-6-18-12 0-28 22-26 24 2 44 10 64 8 10-2 20-2 26 10z" opacity=".7"/>
    <path d="M92 44c-6-18 8-28 18-26 10 2 12 14 10 22-2 8-10 14-18 18-6 2-8-6-10-14z" opacity=".75"/>
  </g>
</svg>
